<svg width="0" height="0" class="hidden"><symbol xmlns="http://www.w3.org/2000/svg" viewBox="0 0 512 512" id="good-review"><path d="M187.048 119.883c5.522 0 10-4.477 10-10V96.517c0-5.523-4.478-10-10-10s-10 4.477-10 10v13.367c0 5.522 4.477 9.999 10 9.999zm67.611 0c5.522 0 10-4.477 10-10V96.517c0-5.523-4.478-10-10-10s-10 4.477-10 10v13.367c0 5.522 4.478 9.999 10 9.999zm-72.502 25.513c-3.908 3.902-3.914 10.233-.012 14.142 10.338 10.356 24.085 16.059 38.708 16.059s28.37-5.703 38.708-16.059c3.902-3.909 3.896-10.24-.012-14.142-3.908-3.901-10.24-3.897-14.143.012-6.56 6.57-15.279 10.189-24.554 10.189s-17.994-3.619-24.554-10.189c-3.9-3.908-10.232-3.913-14.141-.012z"/><path d="M382.298 79.361a31.365 31.365 0 00-16.316 4.555c-5.575-8.995-15.53-14.997-26.859-14.997-2.581 0-5.122.31-7.58.916C311.726 28.559 269.558 0 220.854 0 153.176 0 98.116 55.145 98.116 122.926c0 27.05 8.38 52.644 24.234 74.014 14.387 19.392 33.713 33.736 56.18 41.769v23.437c0 39.863 32.142 72.339 71.805 72.738v23.875h-5.573c-5.522 0-10 4.477-10 10v30.308c-5.291.26-9.502 4.632-9.502 9.988V502c0 5.523 4.478 10 10 10h121.895c5.522 0 10-4.477 10-10v-92.945c0-5.356-4.211-9.728-9.502-9.988v-30.308c0-5.523-4.478-10-10-10h-5.572v-23.871h13.973c31.888 0 57.831-25.979 57.831-57.911V110.983c-.001-17.437-14.17-31.622-31.587-31.622zm-264.182 43.565C118.116 66.172 164.204 20 220.854 20s102.737 46.172 102.737 102.926c0 50.219-34.781 92.044-82.399 101.109v-8.232c0-17.295-14.055-31.366-31.33-31.366-17.276 0-31.331 14.071-31.331 31.366v1.391c-36.599-16.122-60.415-52.563-60.415-94.268zm219.536 255.833v20.295h-82.891v-20.295zM347.154 492H245.26v-72.945h101.895V492zm46.73-215.023c0 20.904-16.971 37.911-37.831 37.911H332.08c-5.522 0-10 4.477-10 10v33.871h-51.745v-33.871c0-5.523-4.478-10-10-10h-9.258c-28.975 0-52.547-23.66-52.547-52.742v-46.343c0-6.267 5.083-11.366 11.331-11.366 6.247 0 11.33 5.099 11.33 11.366v26.457c0 24.54 19.916 44.504 44.396 44.504h30.619c5.522 0 10-4.477 10-10s-4.478-10-10-10h-30.619c-12.762 0-23.267-9.894-24.311-22.447 27.151-4.34 51.964-17.765 70.564-38.338 20.475-22.647 31.75-52.143 31.75-83.053 0-11.792-1.667-23.2-4.776-34.003.103-.003.205-.004.308-.004 6.389 0 11.586 5.213 11.586 11.622v111.467c0 5.523 4.478 10 10 10s10-4.477 10-10V110.985c.002-6.41 5.2-11.625 11.589-11.625s11.586 5.214 11.586 11.622v165.995z"/></symbol><symbol xmlns="http://www.w3.org/2000/svg" viewBox="0 0 512 512" id="fitness"><path d="M40 416h432a24.029 24.029 0 0024-23.589c.223-13.424-11.119-24.411-24.546-24.411h-102.2l61.635-72.842a165.967 165.967 0 0013.293-18.091c.424-.517 9.226-16.034 12.46-23.576l7.268-16.962a64.477 64.477 0 003.27-40.812L459.3 164.2l10.174 3.391a8 8 0 008.187-1.932l8-8A8 8 0 00488 152v-24a8 8 0 00-4.422-7.156l-14.839-7.419L450.414 95.1a24.241 24.241 0 00-17.141-7.1h-1.026a24.191 24.191 0 00-18.035 8.062 33.735 33.735 0 00-19.156 7.152 33.322 33.322 0 00-10.7 15.368l-7.946 22.888a8 8 0 00.162 5.5L384 165.541V184a8 8 0 008 8h16v9.062l-7.805 1.115-29.118 4.159A31.537 31.537 0 00344 237.556v32.228L326.412 299.1l-78.664-78.664a42.451 42.451 0 00-64.562 5.343l-68.844 96.38-21.626 14.416-30.656 7.664A8 8 0 0056 352v16H40.546C27.119 368 15.777 378.987 16 392.411A24.029 24.029 0 0040 416zm368-302.12v10.806l-5.975-5.975A17.727 17.727 0 01408 113.88zM400 176v-12a8 8 0 00-.572-2.971l-6.911-17.279 2.979-8.94 12.5 12.5V176zm2.927 61.277l4.834-19.337.045-.186.116-.519 9.21-1.316A8 8 0 00424 208v-95.753a8.256 8.256 0 018.247-8.247h1.026a8.186 8.186 0 015.827 2.413l19.243 19.244a7.986 7.986 0 002.079 1.5L472 132.944v15.742l-2.16 2.161-4.594-1.531-15.138-14.858a8 8 0 00-13.275 7.977l14.82 57.164a48.39 48.39 0 01-2.455 30.628l-7.268 16.961a150.1 150.1 0 01-8.5 16.812h-9.64a21.506 21.506 0 01-20.865-26.723zm-44.067 38.839A8.009 8.009 0 00360 272v-34.444a15.542 15.542 0 0113.339-15.381l17.5-2.5-3.43 13.72a37.483 37.483 0 0035.187 46.567 147.773 147.773 0 01-3.922 4.859l-61.618 72.823-1.445-8.644a78.1 78.1 0 00-17.671-38.021zm-162.655-41.039a26.451 26.451 0 0140.229-3.329l85.909 85.909a62.248 62.248 0 0117.485 33.978L342.557 368H300l-77.344-108.438a8 8 0 00-13.516.322l-23.494 39.156L144 340.686l-13.551-13.551zM280 368H147.1l3.893-11.679 46.664-46.664a8.05 8.05 0 001.2-1.541l17.495-29.16zm-208-9.754l25.94-6.485a7.983 7.983 0 002.5-1.105l18.542-12.362 15.867 15.867L130.234 368H72zM40 384h432a8 8 0 010 16H40a8 8 0 010-16z"/><path d="M433.926 329.46l-8 9.334a8 8 0 1012.148 10.412l8-9.333a8 8 0 10-12.148-10.413zm40-46.667l-24 28a8 8 0 0012.148 10.414l24-28a8 8 0 00-12.148-10.414z"/></symbol><symbol xmlns="http://www.w3.org/2000/svg" viewBox="0 0 64 64" id="relaxation"><path d="M16.3 41H7a1 1 0 00-1 1c0 1.596.621 3.103 1.757 4.251A6 6 0 0012 48h9a1 1 0 00.914-.594L24 42.712v6.874l-2.798 2.798-8.388-.883a5.29 5.29 0 00-4.073 1.323A5.273 5.273 0 007 56.736 5.27 5.27 0 0012.264 62H51.74c2.9 0 5.26-2.36 5.26-5.26s-2.355-5.26-5.25-5.26c-.191 0-.38.002-.564.025l-8.385.883L40 49.586v-6.874l2.086 4.694A1 1 0 0043 48h9a6.007 6.007 0 004.251-1.757A6 6 0 0058 42a1 1 0 00-1-1h-9.3l-1.848-5.068c-.4-1.111-1.026-2.09-1.788-2.935 6.913-.03 12.387-5.05 12.618-5.265a1.001 1.001 0 000-1.464c-.207-.192-4.652-4.253-10.561-5.103 3.598-4.784 3.868-10.818 3.878-11.1.01-.277-.096-.546-.292-.742s-.476-.313-.742-.293c-.283.01-6.335.282-11.124 3.897-.834-5.933-4.916-10.4-5.109-10.608-.378-.407-1.086-.407-1.464 0-.193.207-4.275 4.675-5.11 10.608C21.37 9.312 15.319 9.04 15.036 9.03a.968.968 0 00-.742.293 1 1 0 00-.292.742c.01.281.279 6.282 3.887 11.1-5.914.847-10.363 4.911-10.57 5.103a1 1 0 000 1.464c.231.214 5.705 5.234 12.618 5.265-.761.844-1.387 1.821-1.786 2.93zm4.33 19h-8.366A3.267 3.267 0 019 56.736c0-.937.384-1.798 1.08-2.425a3.219 3.219 0 012.525-.82l30.935 3.256A1.632 1.632 0 0143.37 60zm30.784-6.508c.116-.014.226-.013.336-.012a3.259 3.259 0 01-.01 6.52h-5.145c.25-.493.405-1.042.405-1.631a3.624 3.624 0 00-3.251-3.612l-2.178-.229zm-5.353-11.15A1 1 0 0047 43h8.875a4.016 4.016 0 01-1.038 1.83A4.015 4.015 0 0152 46h-8.35l-3.736-8.406a.993.993 0 00-1.122-.572A1 1 0 0038 38v12a1 1 0 00.293.707l1.95 1.95-8.226.865-8.256-.869 1.946-1.946A1 1 0 0026 50V38a1 1 0 00-.792-.978.993.993 0 00-1.122.572L20.35 46H12a4.008 4.008 0 01-2.83-1.163A4.029 4.029 0 018.126 43H17a1 1 0 00.94-.657l2.091-5.735A6.993 6.993 0 0126.6 32h10.8a6.995 6.995 0 016.57 4.613zM29.609 30A23.405 23.405 0 0032 28.314 23.407 23.407 0 0034.39 30zM44 31c-3.923 0-7.425-1.908-9.46-3.302 2.592-.466 6.712-1.662 9.93-4.682 4.437.17 8.284 2.7 9.958 3.984-1.732 1.33-5.79 4-10.428 4zm-.657-9.657c-2.791 2.791-6.642 3.913-9.064 4.363 1.509-2.169 3.577-5.923 3.703-10.294 3.266-3.056 7.808-3.995 9.908-4.27-.283 2.151-1.258 6.877-4.547 10.2zM32 4.57c1.331 1.728 4 5.778 4 10.43 0 4.638-2.673 8.698-4.001 10.43C30.669 23.701 28 19.651 28 15c0-4.638 2.673-8.698 4.001-10.43zm-5.983 10.84c.126 4.373 2.196 8.129 3.704 10.296-2.422-.449-6.28-1.579-9.11-4.41-3.245-3.279-4.217-8.005-4.5-10.158 2.097.273 6.63 1.207 9.906 4.273zm-6.492 7.605c3.19 3.024 7.329 4.219 9.933 4.684C27.422 29.093 23.922 31 20 31c-4.638 0-8.696-2.67-10.428-4 1.674-1.283 5.519-3.811 9.954-3.984z"/><path d="M31 34h2v2h-2zm0 4h2v2h-2zm0 4h2v2h-2z"/></symbol><symbol xmlns="http://www.w3.org/2000/svg" viewBox="0 0 399.079 399.079" id="sun"><path d="M371.84 100.04a7.242 7.242 0 00-9.9-2.62l-35.36 20.44a7.242 7.242 0 007.28 12.52l35.36-20.44a7.242 7.242 0 002.62-9.9zm-2.62 189.14l-35.36-20.44a7.242 7.242 0 00-7.28 12.52l35.36 20.44a7.242 7.242 0 007.28-12.52zm-169.121 53.44a7.28 7.28 0 00-7.799 7.799v40.84a7.28 7.28 0 006.721 7.799 7.28 7.28 0 007.799-7.799v-40.84a7.281 7.281 0 00-6.721-7.799zM72.5 117.86L37.14 97.42a7.242 7.242 0 00-7.28 12.52l35.36 20.44a7.242 7.242 0 007.28-12.52zM200.099.02a7.28 7.28 0 00-7.799 7.799v40.84a7.28 7.28 0 007.24 7.24 7.28 7.28 0 007.28-7.28V7.82a7.282 7.282 0 00-6.721-7.8zm-69.759 65.2l-20.4-35.36a7.242 7.242 0 00-12.52 7.28l20.4 35.36a7.242 7.242 0 0012.52-7.28zm70.278 69.72a7.183 7.183 0 00-1.078 0c-35.678 0-64.6 28.922-64.6 64.6a7.28 7.28 0 007.28 7.28 7.28 7.28 0 007.24-7.28c-.022-27.636 22.364-50.058 50-50.08h.08c4.01.298 7.501-2.711 7.799-6.721s-2.711-7.502-6.721-7.799zm197.362 64.04a7.28 7.28 0 00-6.721-6.721h-40.84a7.28 7.28 0 00-7.799 6.721 7.28 7.28 0 007.8 7.799h40.84a7.279 7.279 0 006.72-7.799zM49.738 192.3a7.183 7.183 0 00-1.078 0H7.82a7.28 7.28 0 000 14.52h40.84a7.28 7.28 0 007.799-6.721 7.279 7.279 0 00-6.721-7.799z"/><path d="M199.569 92.7c-59.006-.008-106.846 47.819-106.855 106.825a106.843 106.843 0 0031.305 75.575 106.478 106.478 0 0075.52 31.28c59.006.008 106.847-47.819 106.855-106.825S258.575 92.708 199.569 92.7zm65.25 172.24c-36.053 36.053-94.507 36.053-130.56 0a92.32 92.32 0 01-27.04-65.4 92.001 92.001 0 0127.04-65.28v.12c36.053-36.053 94.507-36.053 130.56 0 36.054 36.053 36.054 94.507 0 130.56zm36.859 97.032l-.019-.032-20.44-35.36a7.242 7.242 0 00-12.52 7.28l20.44 35.36a7.24 7.24 0 009.88 2.64 7.24 7.24 0 002.659-9.888zM299.28 27.24a7.242 7.242 0 00-9.9 2.62l-20.44 35.36a7.24 7.24 0 002.58 9.908l.02.012a7.24 7.24 0 009.901-2.608l.019-.032 20.44-35.36a7.242 7.242 0 00-2.62-9.9zM127.76 323.96a7.242 7.242 0 00-9.9 2.62l-20.44 35.36a7.242 7.242 0 0012.52 7.28l20.44-35.36a7.242 7.242 0 00-2.62-9.9zm-52.64-52.64a7.242 7.242 0 00-9.9-2.62l-35.36 20.44a7.242 7.242 0 007.28 12.52l35.36-20.44a7.242 7.242 0 002.62-9.9z"/></symbol><symbol xmlns="http://www.w3.org/2000/svg" viewBox="0 0 512 512" id="spa"><path d="M429.5 347h-347C37.01 347 0 384.009 0 429.5S37.01 512 82.5 512h347c45.49 0 82.5-37.009 82.5-82.5S474.99 347 429.5 347zm67.073 75H429.5c-34.684 0-63.329-26.298-67.073-60H429.5c34.684 0 63.329 26.298 67.073 60zm-149.217-60c3.804 41.987 39.183 75 82.144 75h67.073a67.071 67.071 0 01-10.973 29.989c-112.721-.483-168.207-21.863-226.904-44.487-55.114-21.243-112.017-43.17-218.782-45.326C51.54 367.697 66.365 362 82.5 362zM164.644 497c-3.804-41.987-39.183-75-82.144-75-4.143 0-7.5 3.358-7.5 7.5s3.357 7.5 7.5 7.5c34.684 0 63.329 26.298 67.073 60H82.5c-34.684 0-63.329-26.298-67.073-60H52.5c4.143 0 7.5-3.358 7.5-7.5s-3.357-7.5-7.5-7.5H15.427A67.071 67.071 0 0126.4 392.011c112.721.483 168.207 21.863 226.904 44.487 55.114 21.243 112.017 43.17 218.782 45.326C460.46 491.303 445.635 497 429.5 497zM256 332c124.617 0 226-101.383 226-226a7.5 7.5 0 00-7.5-7.5c-26.793 0-52.507 4.698-76.375 13.295-1.209-25.983-6.892-51.382-16.945-75.649a7.498 7.498 0 00-9.799-4.059c-23.026 9.538-44.015 22.593-62.535 38.874-11.358-25.288-27.334-48.556-47.542-68.765a7.5 7.5 0 00-10.607 0c-20.208 20.208-36.184 43.477-47.542 68.765-18.521-16.281-39.51-29.337-62.535-38.874a7.502 7.502 0 00-9.799 4.059c-10.053 24.267-15.735 49.666-16.945 75.649C90.007 103.197 64.293 98.5 37.5 98.5A7.5 7.5 0 0030 106c0 124.617 101.383 226 226 226zm-7.5-211c0-4.136 3.364-7.5 7.5-7.5s7.5 3.364 7.5 7.5-3.364 7.5-7.5 7.5-7.5-3.364-7.5-7.5zm15.137 195.864c3.942-110.288 92.939-199.284 203.227-203.228-3.943 110.288-92.94 199.284-203.227 203.228zM370.119 48.992c8.259 22.129 12.689 45.195 13.201 68.732a226.524 226.524 0 00-54.702 34.299c-1.341-22.937-6.002-45.214-13.75-66.296 16.356-15.114 34.894-27.442 55.251-36.735zM256 18.292c37.446 40.116 57.921 92.019 58.018 147.251-21.835 22.042-39.176 48.54-50.518 77.994V142.21c8.729-3.096 15-11.432 15-21.21 0-12.407-10.094-22.5-22.5-22.5s-22.5 10.093-22.5 22.5c0 9.777 6.271 18.114 15 21.21v101.328c-11.342-29.455-28.683-55.952-50.518-77.994.097-55.233 20.572-107.136 58.018-147.252zm-114.119 30.7c20.357 9.293 38.896 21.621 55.251 36.735-7.748 21.082-12.409 43.36-13.75 66.296a226.524 226.524 0 00-54.702-34.299c.512-23.537 4.942-46.603 13.201-68.732zm106.482 267.872c-110.287-3.944-199.284-92.94-203.226-203.228 110.287 3.943 199.284 92.94 203.226 203.228z"/></symbol><symbol xmlns="http://www.w3.org/2000/svg" viewBox="0 0 512 512" id="instagram"><path d="M261.04 512c-1.696 0-3.392 0-5.099-.008-40.132.098-77.214-.922-113.277-3.117-33.062-2.012-63.242-13.438-87.281-33.04-23.196-18.913-39.035-44.487-47.078-76.003-7-27.437-7.371-54.371-7.727-80.422C.32 300.72.055 278.57 0 256.047c.055-22.617.32-44.766.578-63.457.356-26.047.727-52.98 7.727-80.422 8.043-31.516 23.883-57.09 47.078-76.004 24.039-19.602 54.219-31.027 87.285-33.039C178.73.934 215.82-.09 256.039.008c40.145-.086 77.215.926 113.277 3.117 33.063 2.012 63.243 13.438 87.282 33.04 23.199 18.913 39.035 44.487 47.078 76.003 7 27.437 7.37 54.375 7.726 80.422.258 18.691.528 40.84.578 63.363v.094c-.05 22.523-.32 44.672-.578 63.363-.355 26.047-.722 52.98-7.726 80.422-8.043 31.516-23.88 57.09-47.078 76.004-24.04 19.602-54.22 31.027-87.282 33.039C334.781 510.977 299.305 512 261.04 512zm-5.099-40.008c39.48.094 75.73-.902 110.946-3.043 25-1.52 46.675-9.633 64.433-24.113 16.414-13.387 27.72-31.856 33.598-54.895 5.828-22.84 6.164-47.363 6.488-71.078.254-18.566.52-40.558.574-62.863-.054-22.309-.32-44.297-.574-62.863-.324-23.715-.66-48.239-6.488-71.082-5.879-23.04-17.184-41.508-33.598-54.895-17.758-14.476-39.433-22.59-64.433-24.11-35.215-2.144-71.465-3.132-110.852-3.046-39.473-.094-75.726.902-110.941 3.047-25 1.52-46.676 9.633-64.434 24.11-16.414 13.386-27.719 31.855-33.598 54.894-5.828 22.843-6.164 47.363-6.488 71.082-.254 18.582-.52 40.586-.574 62.91.055 22.226.32 44.234.574 62.816.324 23.715.66 48.239 6.488 71.078 5.88 23.04 17.184 41.508 33.598 54.895 17.758 14.476 39.434 22.59 64.434 24.11 35.215 2.144 71.476 3.144 110.847 3.046zM254.988 381c-68.922 0-125-56.074-125-125s56.078-125 125-125c68.926 0 125 56.074 125 125s-56.074 125-125 125zm0-210c-46.867 0-85 38.133-85 85s38.133 85 85 85c46.871 0 85-38.133 85-85s-38.129-85-85-85zm139-80c-16.566 0-30 13.43-30 30s13.434 30 30 30c16.57 0 30-13.43 30-30s-13.43-30-30-30zm0 0"/></symbol><symbol xmlns="http://www.w3.org/2000/svg" viewBox="-110 1 511 512" id="facebook"><path d="M180 512H98.008c-13.695 0-24.836-11.14-24.836-24.836V302.227H25.336C11.64 302.227.5 291.082.5 277.39v-79.246c0-13.696 11.14-24.836 24.836-24.836h47.836v-39.684c0-39.348 12.355-72.824 35.726-96.805C132.375 12.73 165.184 0 203.778 0l62.53.102c13.672.023 24.794 11.164 24.794 24.835v73.579c0 13.695-11.137 24.836-24.829 24.836l-42.101.015c-12.84 0-16.11 2.574-16.809 3.363-1.152 1.31-2.523 5.008-2.523 15.223v31.352h58.27c4.386 0 8.636 1.082 12.288 3.12 7.88 4.403 12.778 12.727 12.778 21.723l-.031 79.247c0 13.687-11.141 24.828-24.836 24.828h-58.47v184.941C204.84 500.86 193.696 512 180 512zm-76.813-30.016h71.633V288.79c0-9.144 7.442-16.582 16.582-16.582h66.727l.027-68.883h-66.758c-9.14 0-16.578-7.437-16.578-16.582v-44.789c0-11.726 1.192-25.062 10.043-35.086 10.696-12.117 27.551-13.515 39.301-13.515l36.922-.016V30.109l-57.332-.093c-62.024 0-100.566 39.703-100.566 103.609v53.117c0 9.14-7.438 16.582-16.579 16.582H30.516v68.883h56.093c9.141 0 16.579 7.438 16.579 16.582zM266.25 30.117h.004zm0 0"/></symbol><symbol xmlns="http://www.w3.org/2000/svg" viewBox="0 0 24 24" id="twitter"><path d="M.473 19.595a13.928 13.928 0 007.478 2.155c3.91 0 7.493-1.502 10.09-4.229 2.485-2.61 3.852-6.117 3.784-9.676.942-.806 2.05-2.345 2.05-3.845a.75.75 0 00-1.13-.647c-.885.52-1.692.656-2.522.423-1.695-1.652-4.218-2-6.344-.854-1.858 1-2.891 2.83-2.798 4.83A12.427 12.427 0 013.02 3.349a.75.75 0 00-1.226.1C.82 5.117.83 7.05 1.677 8.611a.78.78 0 00-.652.777 5.29 5.29 0 001.843 3.995.749.749 0 00-.192.777 5.384 5.384 0 003.047 3.264 8.732 8.732 0 01-4.756.794c-.784-.106-1.171.948-.494 1.377zm7.683-1.914c.561-.431.263-1.329-.441-1.344a3.912 3.912 0 01-3.072-1.598 5.29 5.29 0 001.024-.164c.761-.206.725-1.304-.048-1.459a3.85 3.85 0 01-2.917-2.62c.377.093.761.145 1.144.152.759.004 1.046-.969.427-1.376-1.395-.919-1.99-2.542-1.596-4.068a13.943 13.943 0 009.237 4.123.749.749 0 00.767-.917c-.475-2.059.675-3.502 1.91-4.167 1.222-.66 3.184-.866 4.688.712.447.471 1.955.489 2.722.31-.344.648-.873 1.263-1.368 1.609a.75.75 0 00-.319.651c.161 3.285-1.063 6.551-3.358 8.96-2.312 2.427-5.509 3.764-9.004 3.764-1.39 0-2.753-.226-4.041-.662 1.54-.298 3.003-.95 4.245-1.906z"/></symbol><symbol xmlns="http://www.w3.org/2000/svg" viewBox="0 -62 512.002 512" id="youtube"><path d="M334.809 170.992l-113.114-61.89c-6.504-3.559-14.191-3.426-20.566.351-6.379 3.781-10.184 10.461-10.184 17.875v122.719c0 7.379 3.782 14.047 10.118 17.832 3.308 1.976 6.976 2.969 10.652 2.969a20.74 20.74 0 009.848-2.504L334.68 207.52a20.772 20.772 0 0010.937-18.223 20.763 20.763 0 00-10.808-18.305zm-113.86 63.617v-91.718l84.54 46.257zm0 0"/><path d="M508.234 91.527l-.023-.234c-.434-4.121-4.75-40.777-22.57-59.422C465.043 9.941 441.69 7.277 430.46 6a135.45 135.45 0 01-2.543-.305l-.895-.093C359.336.68 257.113.008 256.09.004L256 0l-.09.004C254.887.008 152.664.68 84.367 5.602l-.902.093c-.727.098-1.528.188-2.399.29-11.101 1.28-34.203 3.949-54.859 26.671C9.234 51.102 4.328 86.973 3.824 91.004l-.058.523C3.613 93.242 0 134.067 0 175.051v38.312c0 40.985 3.613 81.809 3.766 83.528l.027.257c.434 4.055 4.746 40.04 22.484 58.692 19.368 21.195 43.856 24 57.028 25.508 2.082.238 3.875.441 5.097.656l1.184.164c39.082 3.719 161.617 5.55 166.812 5.625l.157.004.156-.004c1.023-.004 103.242-.676 170.93-5.598l.894-.093c.856-.114 1.817-.215 2.871-.325 11.04-1.172 34.016-3.605 54.387-26.02 16.973-18.448 21.883-54.32 22.383-58.347l.058-.523c.153-1.719 3.77-42.54 3.77-83.524v-38.312c-.004-40.985-3.617-81.805-3.77-83.524zm-26.238 121.836c0 37.934-3.312 77-3.625 80.586-1.273 9.88-6.45 32.574-14.719 41.563-12.75 14.027-25.847 15.418-35.41 16.43a164.16 164.16 0 00-3.195.359c-65.469 4.734-163.832 5.46-168.363 5.488-5.082-.074-125.825-1.922-163.715-5.441-1.942-.317-4.04-.559-6.25-.809-11.215-1.285-26.567-3.043-38.371-16.027l-.278-.297c-8.125-8.465-13.152-29.688-14.43-41.149-.238-2.71-3.636-42.238-3.636-80.703v-38.312c0-37.89 3.305-76.914 3.625-80.574 1.52-11.637 6.793-32.957 14.719-41.575 13.14-14.453 26.996-16.054 36.16-17.113.875-.102 1.691-.195 2.445-.293 66.422-4.758 165.492-5.465 169.047-5.492 3.555.023 102.59.734 168.422 5.492.808.102 1.691.203 2.64.313 9.426 1.074 23.672 2.699 36.747 16.644l.12.129c8.126 8.465 13.153 30.059 14.43 41.75.227 2.559 3.637 42.172 3.637 80.719zm0 0"/></symbol><symbol xmlns="http://www.w3.org/2000/svg" viewBox="0 0 490.656 490.656" id="down-arrow"><path d="M487.536 120.445c-4.16-4.16-10.923-4.16-15.083 0L245.339 347.581 18.203 120.467c-4.16-4.16-10.923-4.16-15.083 0s-4.16 10.923 0 15.083l234.667 234.667c2.091 2.069 4.821 3.115 7.552 3.115s5.461-1.045 7.531-3.136l234.667-234.667c4.159-4.161 4.159-10.924-.001-15.084z"/></symbol><symbol xmlns="http://www.w3.org/2000/svg" viewBox="0 0 345.834 345.834" id="mail-send"><path d="M339.798 260.429c.13-.026.257-.061.385-.094.109-.028.219-.051.326-.084.125-.038.247-.085.369-.129.108-.039.217-.074.324-.119.115-.048.226-.104.338-.157.109-.052.22-.1.327-.158.107-.057.208-.122.312-.184.107-.064.215-.124.319-.194.111-.074.214-.156.321-.236.09-.067.182-.13.27-.202.162-.133.316-.275.466-.421.027-.026.056-.048.083-.075.028-.028.052-.059.079-.088.144-.148.284-.3.416-.46.077-.094.144-.192.216-.289.074-.1.152-.197.221-.301.074-.111.139-.226.207-.34.057-.096.118-.19.171-.289.062-.115.114-.234.169-.351.049-.104.101-.207.146-.314.048-.115.086-.232.128-.349.041-.114.085-.227.12-.343.036-.118.062-.238.092-.358.029-.118.063-.234.086-.353.028-.141.045-.283.065-.425.014-.1.033-.199.043-.3.025-.249.038-.498.038-.748V92.76c0-4.143-3.357-7.5-7.5-7.5h-236.25c-.066 0-.13.008-.196.01a7.58 7.58 0 00-.764.059 7.04 7.04 0 00-1.092.223 7.721 7.721 0 00-.695.235 7.042 7.042 0 00-.965.462 8.024 8.024 0 00-.617.393 6.928 6.928 0 00-.591.466 7.54 7.54 0 00-.266.242 7.986 7.986 0 00-.288.294c-.047.05-.097.094-.142.145-.027.03-.048.063-.074.093a7.4 7.4 0 00-.27.338c-.064.084-.13.168-.19.254-.078.112-.15.227-.222.343-.059.095-.12.189-.174.286-.063.112-.118.227-.175.342-.052.105-.106.21-.153.317-.049.113-.092.23-.135.345-.043.113-.087.225-.124.339-.037.115-.067.232-.099.349-.032.12-.066.239-.093.36-.025.113-.042.228-.062.342-.022.13-.044.26-.06.39-.013.108-.019.218-.027.328-.01.14-.019.28-.021.421-.001.041-.006.081-.006.122v46.252c0 4.143 3.357 7.5 7.5 7.5s7.5-3.357 7.5-7.5v-29.595l66.681 59.037a7.577 7.577 0 00-.995.827l-65.687 65.687v-49.288c0-4.143-3.357-7.5-7.5-7.5s-7.5 3.357-7.5 7.5v9.164h-38.75c-4.143 0-7.5 3.357-7.5 7.5s3.357 7.5 7.5 7.5h38.75v43.231c0 4.143 3.357 7.5 7.5 7.5h236.25c.247 0 .494-.013.74-.037.115-.011.226-.033.339-.049.13-.018.258-.033.386-.058zm-8.964-25.462l-65.688-65.687c-.042-.042-.087-.077-.13-.117l49.383-41.897a7.5 7.5 0 00-9.705-11.437l-84.381 71.59-98.444-87.158h208.965v134.706zm-144.956-55.079a7.473 7.473 0 001.308-1.765l28.051 24.835a7.486 7.486 0 004.972 1.885 7.489 7.489 0 004.853-1.781l28.587-24.254c.26.38.553.743.89 1.08l65.687 65.687H120.191l65.687-65.687z"/><path d="M7.5 170.676h126.667c4.143 0 7.5-3.357 7.5-7.5s-3.357-7.5-7.5-7.5H7.5c-4.143 0-7.5 3.357-7.5 7.5s3.357 7.5 7.5 7.5zm13.125-41.331H77.5c4.143 0 7.5-3.357 7.5-7.5s-3.357-7.5-7.5-7.5H20.625c-4.143 0-7.5 3.357-7.5 7.5s3.357 7.5 7.5 7.5zM62.5 226.51h-55c-4.143 0-7.5 3.357-7.5 7.5s3.357 7.5 7.5 7.5h55c4.143 0 7.5-3.357 7.5-7.5s-3.357-7.5-7.5-7.5z"/></symbol><symbol xmlns="http://www.w3.org/2000/svg" viewBox="0 0 512.013 512.013" id="gift-card"><path d="M481.007 120H296.988l48.057-40.622A44.927 44.927 0 00361.007 45c0-24.813-20.187-45-45-45-19.711 0-36.952 12.617-42.902 31.396l-17.097 53.951-17.097-53.95C232.959 12.617 215.718 0 196.007 0c-24.813 0-45 20.187-45 45a44.927 44.927 0 0015.961 34.377L215.025 120H31.007v300h180v92.013l45-45 45 45V420h180zm-30 60h-150v-30h150zM301.703 40.458C303.684 34.203 309.433 30 316.007 30c8.271 0 15 6.729 15 15 0 4.425-1.941 8.604-5.328 11.466l-39.678 33.539zM181.007 45c0-8.271 6.729-15 15-15 6.573 0 12.322 4.203 14.305 10.459l15.701 49.547-39.679-33.54A14.987 14.987 0 01181.007 45zm30 105v30h-150v-30zm-150 240V210h150v180zm195 34.587l-15 15V167.32l15-12.679 15 12.679v272.267zm45-34.587V210h150v180z"/><path d="M331.007 330h90v30h-90z"/></symbol></svg>